<svg height='300px' width='300px'  fill="#000000" xmlns="http://www.w3.org/2000/svg" xmlns:xlink="http://www.w3.org/1999/xlink" xmlns:serif="http://www.serif.com/" viewBox="0 0 100 100" version="1.1" xml:space="preserve" style="" x="0px" y="0px" fill-rule="evenodd" clip-rule="evenodd" stroke-linejoin="round" stroke-miterlimit="1.41421"><path d="M90.212,27.937l-20.526,0l0,2.453l4.535,0c0,1.191 -0.001,-0.807 -0.002,4.428l15.334,0c-0.002,3.089 -0.014,7.598 -0.014,7.598c-5.379,-0.009 -3.504,-0.003 -5.663,-0.002c-0.039,8.61 -0.067,29.306 -0.065,32.033l-67.197,0c0.002,-2.84 0.004,-23.476 0.005,-32.031c-6.038,-0.01 -1.628,0 -5.662,-0.003c0,0 0.067,-4.632 0.065,-7.595l44.227,0c0.008,-5.27 0.013,-3.28 0.012,-4.428l4.521,0c0.002,-1.024 0.003,-1.823 0.004,-2.453l-21.573,0l0,-6.093l51.999,0l0,6.093Zm-71.937,12.548l0,32.021c40.429,0.079 38.638,-0.033 63.656,0l0,-32.021l5.961,-0.005l0,-3.721c-40.429,-0.079 -49.972,0.033 -74.99,0l0,3.714l5.373,0.012Zm56.76,27.65c-5.38,-0.008 -46.049,0 -50.083,-0.002c0,0 0.067,-24.633 0.065,-27.596l50.031,0c-0.002,3.09 -0.013,27.598 -0.013,27.598Zm-48.138,-1.942l46.491,0.007l0,-23.721c-40.43,-0.079 -21.473,0.033 -46.491,0l0,23.714Zm45.664,-31.375l0,-2.487c-10.713,-0.021 -6.132,0.013 -15.42,0l0,2.487l15.42,0Zm-4.534,-6.881l-6.352,0l0,2.453l6.352,0l0,-2.453Zm20.031,-4.19l-48.139,0l0,2.253l48.139,0l0,-2.253Z"></path></svg>