<svg height='300px' width='300px'  fill="#000000" xmlns="http://www.w3.org/2000/svg" xmlns:xlink="http://www.w3.org/1999/xlink" xml:space="preserve" version="1.1" style="shape-rendering:geometricPrecision;text-rendering:geometricPrecision;image-rendering:optimizeQuality;" viewBox="0 0 847 847" x="0px" y="0px" fill-rule="evenodd" clip-rule="evenodd"><defs><style type="text/css">
   
    .fil0 {fill:#000000;fill-rule:nonzero}
   
  </style></defs><g><path class="fil0" d="M473 587c22,22 22,58 0,80 -22,22 -58,22 -80,0 -22,-22 -22,-58 0,-80 22,-22 58,-22 80,0zm-11 11c-16,-16 -42,-16 -57,0 -16,16 -16,42 0,57 15,16 41,16 57,0 16,-15 16,-41 0,-57zm66 -136c22,22 22,58 0,80 -22,22 -58,22 -80,0 -22,-22 -22,-58 0,-80 22,-22 58,-22 80,0zm-11 11c-16,-16 -42,-16 -58,0 -15,16 -15,42 0,57 16,16 42,16 58,0 15,-15 15,-41 0,-57zm11 -168c22,22 22,58 0,80 -22,22 -58,22 -80,0 -22,-22 -22,-58 0,-80 22,-22 58,-22 80,0zm-11 11c-16,-15 -42,-15 -58,0 -15,16 -15,42 0,58 16,15 42,15 58,0 15,-16 15,-42 0,-58zm-44 -136c22,22 22,58 0,80 -22,22 -58,22 -80,0 -22,-22 -22,-58 0,-80 22,-22 58,-22 80,0zm-11 11c-16,-15 -42,-15 -57,0 -16,16 -16,42 0,58 15,15 41,15 57,0 16,-16 16,-42 0,-58zm-119 375c11,-15 24,-27 40,-36 -10,-38 1,-79 30,-107 -29,-27 -40,-68 -30,-107 -16,-8 -30,-20 -40,-35 -20,6 -35,25 -35,47l0 191c0,21 15,40 35,47zm8 17c-34,-6 -59,-29 -59,-64l0 -191c0,-36 25,-59 59,-65 14,24 26,34 52,45 -17,49 -5,84 34,115 -39,32 -51,67 -34,116 -25,11 -38,20 -52,44zm-8 21c-5,34 -1,63 25,88 36,36 95,36 131,0 29,-29 33,-65 20,-102 37,-17 62,-46 62,-88 0,-35 -16,-57 -42,-79 26,-21 42,-43 42,-78 0,-43 -25,-71 -62,-88 13,-37 9,-74 -20,-103 -36,-36 -95,-36 -131,0 -26,26 -30,55 -25,88 -26,3 -30,7 -51,23l0 -44c0,-17 -26,-17 -26,0l0 404c0,18 26,18 26,0l0 -43c21,16 24,20 51,22zm-35 8l0 13c0,39 -58,39 -58,0l0 -404c0,-38 58,-38 58,0l0 13c6,-2 11,-4 17,-5 -2,-32 9,-63 31,-86 43,-42 112,-42 154,0 28,28 38,68 28,106 36,18 59,55 59,96 0,30 -12,58 -34,78 22,21 34,49 34,79 0,40 -23,77 -59,96 10,38 0,78 -28,106 -42,42 -111,42 -154,0 -22,-23 -34,-54 -31,-86 -6,-1 -11,-3 -17,-6z"></path></g></svg>